HIERARCHY
ROOT hip
{
  OFFSET 0 0 0
  CHANNELS 6 Xposition Yposition Zposition Zrotation Yrotation Xrotation
  JOINT abdomen
  {
    OFFSET 0 20.6881 -0.73152
    CHANNELS 3 Zrotation Xrotation Yrotation
    JOINT chest
    {
      OFFSET 0 11.7043 -0.48768
      CHANNELS 3 Zrotation Xrotation Yrotation
      JOINT neck
      {
        OFFSET 0 22.1894 -2.19456
        CHANNELS 3 Zrotation Xrotation Yrotation
        JOINT head
        {
          OFFSET -0.24384 7.07133 1.2192
          CHANNELS 3 Zrotation Xrotation Yrotation
          JOINT leftEye
          {
            OFFSET 4.14528 8.04674 8.04672
            CHANNELS 3 Zrotation Xrotation Yrotation
            End Site
            {
              OFFSET 1 0 0
            }
          }
          JOINT rightEye
          {
            OFFSET -3.6576 8.04674 8.04672
            CHANNELS 3 Zrotation Xrotation Yrotation
            End Site
            {
              OFFSET 1 0 0
            }
          }
        }
      }
      JOINT rCollar
      {
        OFFSET -2.68224 19.2634 -4.8768
        CHANNELS 3 Zrotation Xrotation Yrotation
        JOINT rShldr
        {
          OFFSET -8.77824 -1.95073 1.46304
          CHANNELS 3 Zrotation Xrotation Yrotation
          JOINT rForeArm
          {
            OFFSET -28.1742 -1.7115 0.48768
            CHANNELS 3 Zrotation Xrotation Yrotation
            JOINT rHand
            {
              OFFSET -22.5879 0.773209 7.07136
              CHANNELS 3 Zrotation Xrotation Yrotation
              JOINT rThumb1
              {
                OFFSET -1.2192 -0.487915 3.41376
                CHANNELS 3 Zrotation Xrotation Yrotation
                JOINT rThumb2
                {
                  OFFSET -3.37035 -0.52449 3.41376
                  CHANNELS 3 Zrotation Xrotation Yrotation
                  End Site
                  {
                    OFFSET -1.78271 -1.18214 1.43049
                  }
                }
              }
              JOINT rIndex1
              {
                OFFSET -7.75947 0.938293 5.60832
                CHANNELS 3 Zrotation Xrotation Yrotation
                JOINT rIndex2
                {
                  OFFSET -2.54057 -0.884171 1.56538
                  CHANNELS 3 Zrotation Xrotation Yrotation
                  End Site
                  {
                    OFFSET -1.62519 -0.234802 1.16502
                  }
                }
              }
              JOINT rMid1
              {
                OFFSET -8.24714 1.18213 3.41376
                CHANNELS 3 Zrotation Xrotation Yrotation
                JOINT rMid2
                {
                  OFFSET -3.10165 -0.590103 1.0647
                  CHANNELS 3 Zrotation Xrotation Yrotation
                  End Site
                  {
                    OFFSET -2.48547 -0.328903 0.83742
                  }
                }
              }
              JOINT rRing1
              {
                OFFSET -8.82822 0.546677 1.51678
                CHANNELS 3 Zrotation Xrotation Yrotation
                JOINT rRing2
                {
                  OFFSET -2.60934 -0.819778 -0.0198488
                  CHANNELS 3 Zrotation Xrotation Yrotation
                  End Site
                  {
                    OFFSET -2.33842 -0.294052 0.168128
                  }
                }
              }
              JOINT rPinky1
              {
                OFFSET -8.27202 -0.0477905 -0.4584
                CHANNELS 3 Zrotation Xrotation Yrotation
                JOINT rPinky2
                {
                  OFFSET -1.82734 -0.647385 -0.700984
                  CHANNELS 3 Zrotation Xrotation Yrotation
                  End Site
                  {
                    OFFSET -1.69225 -0.51767 -0.607171
                  }
                }
              }
            }
          }
        }
      }
      JOINT lCollar
      {
        OFFSET 2.68224 19.2634 -4.8768
        CHANNELS 3 Zrotation Xrotation Yrotation
        JOINT lShldr
        {
          OFFSET 8.77824 -1.95073 1.46304
          CHANNELS 3 Zrotation Xrotation Yrotation
          JOINT lForeArm
          {
            OFFSET 28.1742 -1.7115 0.48768
            CHANNELS 3 Zrotation Xrotation Yrotation
            JOINT lHand
            {
              OFFSET 22.5879 0.773209 7.07136
              CHANNELS 3 Zrotation Xrotation Yrotation
              JOINT lThumb1
              {
                OFFSET 1.2192 -0.487915 3.41376
                CHANNELS 3 Zrotation Xrotation Yrotation
                JOINT lThumb2
                {
                  OFFSET 3.37035 -0.52449 3.41376
                  CHANNELS 3 Zrotation Xrotation Yrotation
                  End Site
                  {
                    OFFSET 1.78271 -1.18214 1.43049
                  }
                }
              }
              JOINT lIndex1
              {
                OFFSET 7.75947 0.938293 5.60832
                CHANNELS 3 Zrotation Xrotation Yrotation
                JOINT lIndex2
                {
                  OFFSET 2.54057 -0.884171 1.56538
                  CHANNELS 3 Zrotation Xrotation Yrotation
                  End Site
                  {
                    OFFSET 1.62519 -0.234802 1.16502
                  }
                }
              }
              JOINT lMid1
              {
                OFFSET 8.24714 1.18213 3.41376
                CHANNELS 3 Zrotation Xrotation Yrotation
                JOINT lMid2
                {
                  OFFSET 3.10165 -0.590103 1.0647
                  CHANNELS 3 Zrotation Xrotation Yrotation
                  End Site
                  {
                    OFFSET 2.48547 -0.328903 0.83742
                  }
                }
              }
              JOINT lRing1
              {
                OFFSET 8.82822 0.546677 1.51678
                CHANNELS 3 Zrotation Xrotation Yrotation
                JOINT lRing2
                {
                  OFFSET 2.60934 -0.819778 -0.0198488
                  CHANNELS 3 Zrotation Xrotation Yrotation
                  End Site
                  {
                    OFFSET 2.33842 -0.294052 0.168128
                  }
                }
              }
              JOINT lPinky1
              {
                OFFSET 8.27202 -0.0477905 -0.4584
                CHANNELS 3 Zrotation Xrotation Yrotation
                JOINT lPinky2
                {
                  OFFSET 1.82734 -0.647385 -0.700984
                  CHANNELS 3 Zrotation Xrotation Yrotation
                  End Site
                  {
                    OFFSET 1.69225 -0.51767 -0.607171
                  }
                }
              }
            }
          }
        }
      }
    }
  }
  JOINT rButtock
  {
    OFFSET -8.77824 4.35084 1.2192
    CHANNELS 3 Zrotation Xrotation Yrotation
    JOINT rThigh
    {
      OFFSET 0 -1.70687 -2.19456
      CHANNELS 3 Zrotation Xrotation Yrotation
      JOINT rShin
      {
        OFFSET 0 -36.8199 0.73152
        CHANNELS 3 Zrotation Xrotation Yrotation
        JOINT rFoot
        {
          OFFSET 0.73152 -45.1104 -5.12064
          CHANNELS 3 Zrotation Xrotation Yrotation
          End Site
          {
            OFFSET -1.1221 -3.69964 12.103
          }
        }
      }
    }
  }
  JOINT lButtock
  {
    OFFSET 8.77824 4.35084 1.2192
    CHANNELS 3 Zrotation Xrotation Yrotation
    JOINT lThigh
    {
      OFFSET 0 -1.70687 -2.19456
      CHANNELS 3 Zrotation Xrotation Yrotation
      JOINT lShin
      {
        OFFSET 0 -36.8199 0.73152
        CHANNELS 3 Zrotation Xrotation Yrotation
        JOINT lFoot
        {
          OFFSET -0.73152 -45.1104 -5.12064
          CHANNELS 3 Zrotation Xrotation Yrotation
          End Site
          {
            OFFSET 1.1221 -3.69964 12.103
          }
        }
      }
    }
  }
}
MOTION
Frames:	4
Frame Time:	0.00833333
100.41 85.1388 128.009 0.0 0.0 0.0 0.410575 -0.00336393 0.0117802 0.113455 -0.00539469 0.0196586 1.48733e-14 2.38542e-15 3.106e-17 4.45138e-14 1.59028e-14 1.07157e-16 -0.0 0.0 0.0 -0.0 0.0 0.0 7.55274e-15 7.76503e-19 9.93923e-17 1.5666e-13 5.59082e-17 2.18663e-15 2.6907e-12 -8.02692e-13 -1.59028e-14 3.07671e-11 8.09998e-13 1.24042e-13 7.25752e-11 1.1082e-14 2.29e-13 1.25319e-10 1.59028e-14 4.0393e-13 7.25743e-11 7.95139e-15 2.25819e-13 7.73091 5.47488 0.417314 7.25731e-11 1.00386e-14 2.3218e-13 2.90554 0.965183 0.102902 7.25688e-11 1.0138e-14 2.31385e-13 10.2786 0.731801 0.0259123 7.2563e-11 1.82882e-14 2.35361e-13 2.22167 -0.733487 -0.20892 7.2572e-15 5.82377e-19 -4.96962e-17 1.54731e-13 8.69683e-17 1.98785e-16 2.68672e-12 8.02295e-13 3.18055e-15 3.07647e-11 -8.14048e-13 1.11319e-13 7.25715e-11 -2.83526e-14 2.38542e-13 1.25333e-10 -5.725e-14 3.97569e-13 7.25707e-11 -3.18055e-14 2.44903e-13 -7.73091 5.47488 -0.417314 7.2573e-11 -2.93207e-14 2.35361e-13 -2.90554 0.965183 -0.102902 7.25719e-11 -2.9122e-14 2.35361e-13 -10.2786 0.731801 -0.0259123 7.25809e-11 -2.26615e-14 2.25819e-13 -2.22167 -0.733487 0.20892 -2.03217e-16 0.0 -3.88251e-19 0.770897 -4.17179 -0.0656916 -0.00265695 2.00547 -0.0182889 -0.462133 2.16691 0.0961416 2.03217e-16 0.0 3.88251e-19 -0.142943 -2.55997 0.0260621 0.00716109 -0.914059 0.0621532 0.453471 3.47456 -0.121181
99.7441 83.6358 123.475 173.827 -2.0047 -153.858 -2.39061 -8.95387 -0.872506 1.4182 4.40423 -0.33247 -0.204031 3.24817 -0.0300913 1.21806 -4.41424 -0.0585175 -0.0 0.0 0.0 -0.0 0.0 0.0 -4.46628e-14 -2.94938e-14 -1.7462e-14 22.8003 1.35794 -1.51113 -4.83698 -2.33641 7.39844 0.000574873 -0.531853 -0.0747354 9.18015e-10 -9.33282e-10 6.44095e-10 1.58763e-09 -1.61438e-09 1.1143e-09 9.18016e-10 -9.33284e-10 6.44088e-10 7.73091 5.47488 0.417314 9.18013e-10 -9.33282e-10 6.44097e-10 2.90554 0.965183 0.102902 9.18012e-10 -9.33282e-10 6.44097e-10 10.2786 0.731801 0.0259123 9.18004e-10 -9.33275e-10 6.44103e-10 2.22167 -0.733487 -0.20892 -4.48685e-14 -2.94945e-14 -1.76111e-14 -21.2925 5.86111 -0.478949 3.32153 -1.36609 -5.33297 -0.00274899 1.16305 -0.163334 7.71545e-10 3.79892e-11 -7.47637e-10 1.32942e-09 6.39256e-11 -1.29699e-09 7.71545e-10 3.79881e-11 -7.47628e-10 -7.73091 5.47488 -0.417314 7.71548e-10 3.79894e-11 -7.47639e-10 -2.90554 0.965183 -0.102902 7.71548e-10 3.79914e-11 -7.47637e-10 -10.2786 0.731801 -0.0259123 7.71555e-10 3.79944e-11 -7.47648e-10 -2.22167 -0.733487 0.20892 -2.03217e-16 0.0 -3.88251e-19 0.00481502 -11.095 0.682619 0.0016039 3.96551 0.0290329 -0.530806 -2.25608 0.275701 2.03217e-16 0.0 3.88251e-19 -1.95253 -9.17884 -2.54422 0.00953311 1.76929 0.0306711 0.506987 1.7821 -1.07277
99.7496 83.6292 123.482 173.886 -1.9372 -153.846 -5.67041 -18.4094 -1.88456 2.8572 9.06474 -0.712198 -0.414775 6.67983 -0.0587803 2.49381 -9.08586 -0.114011 -0.0 0.0 0.0 -0.0 0.0 0.0 -1.02306e-13 -5.50624e-14 -3.45388e-14 46.9818 2.78985 -3.1115 -9.29986 -4.67632 15.2585 -0.000326112 -1.09372 -0.153711 1.8161e-09 -1.89054e-09 1.31207e-09 3.14098e-09 -3.27026e-09 2.26994e-09 1.8161e-09 -1.89054e-09 1.31206e-09 7.73091 5.47488 0.417314 1.8161e-09 -1.89054e-09 1.31207e-09 2.90554 0.965183 0.102902 1.8161e-09 -1.89054e-09 1.31207e-09 10.2786 0.731801 0.0259123 1.81609e-09 -1.89053e-09 1.31208e-09 2.22167 -0.733487 -0.20892 -1.02418e-13 -5.50636e-14 -3.46879e-14 -43.6928 12.0551 -0.999292 6.55857 -2.77136 -10.9818 0.00156083 2.39248 -0.336219 1.49838e-09 8.87605e-11 -1.50577e-09 2.58154e-09 1.49918e-10 -2.61237e-09 1.49838e-09 8.87619e-11 -1.50576e-09 -7.73091 5.47488 -0.417314 1.49838e-09 8.87619e-11 -1.50577e-09 -2.90554 0.965183 -0.102902 1.49838e-09 8.87659e-11 -1.50577e-09 -10.2786 0.731801 -0.0259123 1.49839e-09 8.87652e-11 -1.50578e-09 -2.22167 -0.733487 0.20892 -2.03217e-16 0.0 -3.88251e-19 -0.601176 -18.4115 1.53045 0.00258807 6.0386 0.0793159 -0.573611 -6.92588 0.465278 2.03217e-16 0.0 3.88251e-19 -4.53809 -16.1298 -5.40799 0.0152467 4.60784 -0.00268131 0.50282 -0.00437438 -2.07364
99.7582 83.6295 123.466 173.927 -1.8529 -153.946 -8.90619 -26.8279 -2.92415 4.19401 13.2215 -1.06193 -0.60173 9.74449 -0.0914483 3.6265 -13.2427 -0.179813 -0.0 0.0 0.0 -0.0 0.0 0.0 -1.49094e-13 -8.8483e-14 -5.25848e-14 68.616 4.06246 -4.54356 -12.7412 -6.54276 22.3299 -0.00243917 -1.59555 -0.224283 2.60889e-09 -2.79987e-09 1.93183e-09 4.51227e-09 -4.84318e-09 3.34208e-09 2.6089e-09 -2.79987e-09 1.93181e-09 7.73091 5.47488 0.417314 2.60889e-09 -2.79987e-09 1.93183e-09 2.90554 0.965183 0.102902 2.6089e-09 -2.79987e-09 1.93183e-09 10.2786 0.731801 0.0259123 2.60889e-09 -2.79986e-09 1.93184e-09 2.22167 -0.733487 -0.20892 -1.4912e-13 -8.84847e-14 -5.27338e-14 -63.5714 17.5783 -1.49936 9.21116 -3.95649 -16.0336 0.0116774 3.48903 -0.490812 2.16949e-09 1.14024e-10 -2.24339e-09 3.73758e-09 1.91891e-10 -3.89175e-09 2.16949e-09 1.14028e-10 -2.24337e-09 -7.73091 5.47488 -0.417314 2.1695e-09 1.14027e-10 -2.24339e-09 -2.90554 0.965183 -0.102902 2.1695e-09 1.14032e-10 -2.24338e-09 -10.2786 0.731801 -0.0259123 2.1695e-09 1.14028e-10 -2.24339e-09 -2.22167 -0.733487 0.20892 -2.03217e-16 0.0 -3.88251e-19 -0.935712 -24.9251 2.36059 0.000331175 7.88558 0.124624 -0.583515 -11.1015 0.646411 2.03217e-16 0.0 3.88251e-19 -7.47265 -22.2363 -8.20054 0.0231475 7.13599 -0.0325734 0.445454 -1.59975 -2.976
